<mxfile host="app.diagrams.net" agent="Mozilla/5.0 (Windows NT 10.0; Win64; x64) AppleWebKit/537.36 (KHTML, like Gecko) Chrome/128.0.0.0 Safari/537.36" version="24.7.10">
  <diagram name="Page-1" id="r-dBQ9j4gFgFpyugvA7R">
    <mxGraphModel dx="913" dy="491" grid="1" gridSize="10" guides="1" tooltips="1" connect="1" arrows="1" fold="1" page="1" pageScale="1" pageWidth="827" pageHeight="1169" math="0" shadow="0">
      <root>
        <mxCell id="0" />
        <mxCell id="1" parent="0" />
        <mxCell id="T0jZ_ga1utjOD2vCvdZ7-11" style="edgeStyle=orthogonalEdgeStyle;rounded=0;orthogonalLoop=1;jettySize=auto;html=1;exitX=0.5;exitY=1;exitDx=0;exitDy=0;entryX=0.5;entryY=0;entryDx=0;entryDy=0;" parent="1" source="AwA4mql_HM7cYd_l_bpD-1" target="T0jZ_ga1utjOD2vCvdZ7-9" edge="1">
          <mxGeometry relative="1" as="geometry" />
        </mxCell>
        <mxCell id="AwA4mql_HM7cYd_l_bpD-1" value="&lt;font style=&quot;font-size: 15px;&quot;&gt;index&lt;/font&gt;" style="rounded=0;whiteSpace=wrap;html=1;" parent="1" vertex="1">
          <mxGeometry x="309" y="10" width="130" height="40" as="geometry" />
        </mxCell>
        <mxCell id="AwA4mql_HM7cYd_l_bpD-10" style="edgeStyle=orthogonalEdgeStyle;rounded=0;orthogonalLoop=1;jettySize=auto;html=1;exitX=0.5;exitY=1;exitDx=0;exitDy=0;entryX=0.5;entryY=0;entryDx=0;entryDy=0;" parent="1" source="AwA4mql_HM7cYd_l_bpD-2" target="AwA4mql_HM7cYd_l_bpD-3" edge="1">
          <mxGeometry relative="1" as="geometry">
            <mxPoint x="374" y="170" as="sourcePoint" />
          </mxGeometry>
        </mxCell>
        <mxCell id="AwA4mql_HM7cYd_l_bpD-2" value="&lt;span style=&quot;font-size: 15px;&quot;&gt;AuthnContainer&lt;/span&gt;" style="rounded=0;whiteSpace=wrap;html=1;" parent="1" vertex="1">
          <mxGeometry x="309" y="130" width="130" height="40" as="geometry" />
        </mxCell>
        <mxCell id="JAKa-1IH55sqwPYCDe7c-1" style="edgeStyle=orthogonalEdgeStyle;rounded=0;orthogonalLoop=1;jettySize=auto;html=1;exitX=0.5;exitY=1;exitDx=0;exitDy=0;entryX=0.5;entryY=0;entryDx=0;entryDy=0;" edge="1" parent="1" source="AwA4mql_HM7cYd_l_bpD-3" target="AwA4mql_HM7cYd_l_bpD-7">
          <mxGeometry relative="1" as="geometry" />
        </mxCell>
        <mxCell id="JAKa-1IH55sqwPYCDe7c-13" style="edgeStyle=orthogonalEdgeStyle;rounded=0;orthogonalLoop=1;jettySize=auto;html=1;exitX=0.5;exitY=1;exitDx=0;exitDy=0;" edge="1" parent="1" source="AwA4mql_HM7cYd_l_bpD-3" target="JAKa-1IH55sqwPYCDe7c-12">
          <mxGeometry relative="1" as="geometry" />
        </mxCell>
        <mxCell id="AwA4mql_HM7cYd_l_bpD-3" value="&lt;span style=&quot;font-size: 15px;&quot;&gt;App&lt;/span&gt;" style="rounded=0;whiteSpace=wrap;html=1;" parent="1" vertex="1">
          <mxGeometry x="309" y="190" width="130" height="40" as="geometry" />
        </mxCell>
        <mxCell id="JAKa-1IH55sqwPYCDe7c-17" style="edgeStyle=orthogonalEdgeStyle;rounded=0;orthogonalLoop=1;jettySize=auto;html=1;exitX=0.5;exitY=1;exitDx=0;exitDy=0;entryX=0.5;entryY=0;entryDx=0;entryDy=0;" edge="1" parent="1" source="AwA4mql_HM7cYd_l_bpD-7" target="Ty7-eHjBP48VKCG4unU4-2">
          <mxGeometry relative="1" as="geometry" />
        </mxCell>
        <mxCell id="AwA4mql_HM7cYd_l_bpD-7" value="&lt;span style=&quot;font-size: 15px;&quot;&gt;FormPage&lt;/span&gt;" style="rounded=0;whiteSpace=wrap;html=1;" parent="1" vertex="1">
          <mxGeometry x="149" y="270" width="160" height="50" as="geometry" />
        </mxCell>
        <mxCell id="JAKa-1IH55sqwPYCDe7c-8" style="edgeStyle=orthogonalEdgeStyle;rounded=0;orthogonalLoop=1;jettySize=auto;html=1;exitX=0.5;exitY=1;exitDx=0;exitDy=0;entryX=0.5;entryY=0;entryDx=0;entryDy=0;" edge="1" parent="1" source="JAKa-1IH55sqwPYCDe7c-12" target="JAKa-1IH55sqwPYCDe7c-7">
          <mxGeometry relative="1" as="geometry">
            <mxPoint x="514" y="312" as="sourcePoint" />
            <Array as="points">
              <mxPoint x="515" y="340" />
              <mxPoint x="599" y="340" />
            </Array>
          </mxGeometry>
        </mxCell>
        <mxCell id="JAKa-1IH55sqwPYCDe7c-9" style="edgeStyle=orthogonalEdgeStyle;rounded=0;orthogonalLoop=1;jettySize=auto;html=1;exitX=0.5;exitY=1;exitDx=0;exitDy=0;entryX=0.5;entryY=0;entryDx=0;entryDy=0;" edge="1" parent="1" source="JAKa-1IH55sqwPYCDe7c-12" target="JAKa-1IH55sqwPYCDe7c-6">
          <mxGeometry relative="1" as="geometry">
            <mxPoint x="514" y="312" as="sourcePoint" />
            <Array as="points">
              <mxPoint x="515" y="340" />
              <mxPoint x="430" y="340" />
            </Array>
          </mxGeometry>
        </mxCell>
        <mxCell id="Ty7-eHjBP48VKCG4unU4-2" value="" style="rounded=0;whiteSpace=wrap;html=1;" parent="1" vertex="1">
          <mxGeometry x="149" y="360" width="160" height="50" as="geometry" />
        </mxCell>
        <mxCell id="T0jZ_ga1utjOD2vCvdZ7-10" style="edgeStyle=orthogonalEdgeStyle;rounded=0;orthogonalLoop=1;jettySize=auto;html=1;exitX=0.5;exitY=1;exitDx=0;exitDy=0;entryX=0.5;entryY=0;entryDx=0;entryDy=0;" parent="1" source="T0jZ_ga1utjOD2vCvdZ7-9" target="AwA4mql_HM7cYd_l_bpD-2" edge="1">
          <mxGeometry relative="1" as="geometry" />
        </mxCell>
        <mxCell id="T0jZ_ga1utjOD2vCvdZ7-9" value="&lt;span style=&quot;font-size: 15px;&quot;&gt;I18nextProvider&lt;/span&gt;" style="rounded=0;whiteSpace=wrap;html=1;" parent="1" vertex="1">
          <mxGeometry x="309" y="70" width="130" height="40" as="geometry" />
        </mxCell>
        <mxCell id="JAKa-1IH55sqwPYCDe7c-2" value="&lt;span style=&quot;font-size: 15px;&quot;&gt;useNewForm&lt;/span&gt;" style="text;html=1;align=center;verticalAlign=middle;whiteSpace=wrap;rounded=0;" vertex="1" parent="1">
          <mxGeometry x="170" y="370" width="90" height="30" as="geometry" />
        </mxCell>
        <mxCell id="JAKa-1IH55sqwPYCDe7c-3" value="" style="sketch=0;html=1;aspect=fixed;strokeColor=none;shadow=0;fillColor=#3B8DF1;verticalAlign=top;labelPosition=center;verticalLabelPosition=bottom;shape=mxgraph.gcp2.gear" vertex="1" parent="1">
          <mxGeometry x="270" y="366" width="22" height="22" as="geometry" />
        </mxCell>
        <mxCell id="JAKa-1IH55sqwPYCDe7c-4" value="" style="sketch=0;html=1;aspect=fixed;strokeColor=none;shadow=0;fillColor=#3B8DF1;verticalAlign=top;labelPosition=center;verticalLabelPosition=bottom;shape=mxgraph.gcp2.gear" vertex="1" parent="1">
          <mxGeometry x="283" y="384" width="20" height="20" as="geometry" />
        </mxCell>
        <mxCell id="JAKa-1IH55sqwPYCDe7c-5" value="" style="sketch=0;html=1;aspect=fixed;strokeColor=none;shadow=0;fillColor=#3B8DF1;verticalAlign=top;labelPosition=center;verticalLabelPosition=bottom;shape=mxgraph.gcp2.gear" vertex="1" parent="1">
          <mxGeometry x="270" y="387.5" width="13" height="13" as="geometry" />
        </mxCell>
        <mxCell id="JAKa-1IH55sqwPYCDe7c-11" style="edgeStyle=orthogonalEdgeStyle;rounded=0;orthogonalLoop=1;jettySize=auto;html=1;exitX=0.5;exitY=1;exitDx=0;exitDy=0;entryX=0.5;entryY=0;entryDx=0;entryDy=0;" edge="1" parent="1" source="JAKa-1IH55sqwPYCDe7c-6" target="JAKa-1IH55sqwPYCDe7c-10">
          <mxGeometry relative="1" as="geometry" />
        </mxCell>
        <mxCell id="JAKa-1IH55sqwPYCDe7c-6" value="&lt;span style=&quot;font-size: 15px;&quot;&gt;EditFormPage&lt;/span&gt;" style="rounded=0;whiteSpace=wrap;html=1;" vertex="1" parent="1">
          <mxGeometry x="350" y="360" width="160" height="50" as="geometry" />
        </mxCell>
        <mxCell id="JAKa-1IH55sqwPYCDe7c-15" value="" style="edgeStyle=orthogonalEdgeStyle;rounded=0;orthogonalLoop=1;jettySize=auto;html=1;" edge="1" parent="1" source="JAKa-1IH55sqwPYCDe7c-7" target="JAKa-1IH55sqwPYCDe7c-14">
          <mxGeometry relative="1" as="geometry" />
        </mxCell>
        <mxCell id="JAKa-1IH55sqwPYCDe7c-7" value="&lt;span style=&quot;font-size: 15px;&quot;&gt;EditTermsPage&lt;/span&gt;" style="rounded=0;whiteSpace=wrap;html=1;" vertex="1" parent="1">
          <mxGeometry x="520" y="360" width="160" height="50" as="geometry" />
        </mxCell>
        <mxCell id="JAKa-1IH55sqwPYCDe7c-10" value="&lt;span style=&quot;font-size: 15px;&quot;&gt;useEditFormPage&lt;/span&gt;" style="rounded=0;whiteSpace=wrap;html=1;" vertex="1" parent="1">
          <mxGeometry x="350" y="426" width="160" height="50" as="geometry" />
        </mxCell>
        <mxCell id="JAKa-1IH55sqwPYCDe7c-12" value="&lt;span style=&quot;font-size: 15px;&quot;&gt;Backoffice&lt;/span&gt;" style="rounded=0;whiteSpace=wrap;html=1;" vertex="1" parent="1">
          <mxGeometry x="435" y="270" width="160" height="50" as="geometry" />
        </mxCell>
        <mxCell id="JAKa-1IH55sqwPYCDe7c-19" style="edgeStyle=orthogonalEdgeStyle;rounded=0;orthogonalLoop=1;jettySize=auto;html=1;exitX=0.5;exitY=1;exitDx=0;exitDy=0;entryX=0.5;entryY=0;entryDx=0;entryDy=0;" edge="1" parent="1" source="JAKa-1IH55sqwPYCDe7c-14" target="JAKa-1IH55sqwPYCDe7c-18">
          <mxGeometry relative="1" as="geometry" />
        </mxCell>
        <mxCell id="JAKa-1IH55sqwPYCDe7c-14" value="" style="rounded=0;whiteSpace=wrap;html=1;" vertex="1" parent="1">
          <mxGeometry x="520" y="426" width="160" height="50" as="geometry" />
        </mxCell>
        <mxCell id="JAKa-1IH55sqwPYCDe7c-18" value="&lt;span style=&quot;font-size: 15px;&quot;&gt;use&lt;/span&gt;&lt;span style=&quot;background-color: initial; font-size: 15px;&quot;&gt;EditTerms&lt;/span&gt;" style="rounded=0;whiteSpace=wrap;html=1;" vertex="1" parent="1">
          <mxGeometry x="520" y="490" width="160" height="50" as="geometry" />
        </mxCell>
        <mxCell id="JAKa-1IH55sqwPYCDe7c-20" value="" style="shape=image;verticalLabelPosition=bottom;labelBackgroundColor=default;verticalAlign=top;aspect=fixed;imageAspect=0;image=data:image/png,iVBORw0KGgoAAAANSUhEUgAAAc0AAACYCAYAAACGcbLtAAAAGXRFWHRTb2Z0d2FyZQBBZG9iZSBJbWFnZVJlYWR5ccllPAAAA3NpVFh0WE1MOmNvbS5hZG9iZS54bXAAAAAAADw/eHBhY2tldCBiZWdpbj0i77u/IiBpZD0iVzVNME1wQ2VoaUh6cmVTek5UY3prYzlkIj8+IDx4OnhtcG1ldGEgeG1sbnM6eD0iYWRvYmU6bnM6bWV0YS8iIHg6eG1wdGs9IkFkb2JlIFhNUCBDb3JlIDUuNi1jMTQwIDc5LjE2MDQ1MSwgMjAxNy8wNS8wNi0wMTowODoyMSAgICAgICAgIj4gPHJkZjpSREYgeG1sbnM6cmRmPSJodHRwOi8vd3d3LnczLm9yZy8xOTk5LzAyLzIyLXJkZi1zeW50YXgtbnMjIj4gPHJkZjpEZXNjcmlwdGlvbiByZGY6YWJvdXQ9IiIgeG1sbnM6eG1wTU09Imh0dHA6Ly9ucy5hZG9iZS5jb20veGFwLzEuMC9tbS8iIHhtbG5zOnN0UmVmPSJodHRwOi8vbnMuYWRvYmUuY29tL3hhcC8xLjAvc1R5cGUvUmVzb3VyY2VSZWYjIiB4bWxuczp4bXA9Imh0dHA6Ly9ucy5hZG9iZS5jb20veGFwLzEuMC8iIHhtcE1NOk9yaWdpbmFsRG9jdW1lbnRJRD0ieG1wLmRpZDo3YmI4ZTJmYi1mODQ4LTQxNmUtOGUzMS0yZDE3Y2E2NWI1ZjUiIHhtcE1NOkRvY3VtZW50SUQ9InhtcC5kaWQ6NTczMUE0N0UwM0U3MTFFOEEwRTRGNUIyNDY0NkM1N0MiIHhtcE1NOkluc3RhbmNlSUQ9InhtcC5paWQ6NTczMUE0N0QwM0U3MTFFOEEwRTRGNUIyNDY0NkM1N0MiIHhtcDpDcmVhdG9yVG9vbD0iQWRvYmUgUGhvdG9zaG9wIENDIChNYWNpbnRvc2gpIj4gPHhtcE1NOkRlcml2ZWRGcm9tIHN0UmVmOmluc3RhbmNlSUQ9InhtcC5paWQ6N2JiOGUyZmItZjg0OC00MTZlLThlMzEtMmQxN2NhNjViNWY1IiBzdFJlZjpkb2N1bWVudElEPSJ4bXAuZGlkOjdiYjhlMmZiLWY4NDgtNDE2ZS04ZTMxLTJkMTdjYTY1YjVmNSIvPiA8L3JkZjpEZXNjcmlwdGlvbj4gPC9yZGY6UkRGPiA8L3g6eG1wbWV0YT4gPD94cGFja2V0IGVuZD0iciI/PgodpgsAAB7HSURBVHja7J0LlBxVmce/6sc8Q2RUzKIoEleR+GA1eggiq5gHB/e4ypEoHF1FXYMc9ehCYhDXFcWFQdGz0QUlsmSPri4LCeqyCoQIi4s4ilkDbAbcLENiOoS8k8nM9Lvufl9V9Ux1T89MP251V93+/8656Ud6qru/qr6/+92695ZFX72bgIH09tbz6i95t18O5LOk09gfAIDwUSjW/ScJRK3jEWFe43v8ZYQEAACqE0MIIEzf42tIqa8jLAAAAGmC2YXpYlmrIU4AAIA0wVzChDgBAGBWEnUOGAGmC7NcnHK7BiEDAICSNPXxUi7ncXkTl9O5vJzLC7n0c+lGqGvmVi6ruKi2CRPiBACAQKT5Mi4f5nIxl0UIZ9NsCI0wIU4AANAmzTO5fIHLewnnRfWg1H/Q+MS3+PZ13jOH6YR5qbYKE+IEAICmpPkiLl/j8iGpShE+bcK8h4X5Rb61vWeOhEaYECcAAPikWXtH4Eou67mciLBpFeZmmpi4ukyYRClNHbR6hDllztVkNyBOhd0MADCDWrpWu7jczOUOCFO7MH/Bwvy8T5hHHWHOm6dLM+PalYXpKACAjs40Z2cel01cViBU2oX5EAtzLd8WvGeOcdmtUZjCjVwOcvke6Rwpja5aAAAyzWn0cdkMYQYizIdZmFfybd4nzD9qFmaJfybbvpRvs8g4AQAgGGlKl6xc/uRshEi7MH9N6fQVPmGOBihMby/HfsjivNB7L4gTAAA0S/MfuLwD4dEuzN+yMD/LAitlfce57NIkzC/R1CW+qonzHioWz+d7ByBOAABojGrnud7P5XKERrswt7IwP83CzPiEuVOjMK/xPa5+ea94fIjF+Xa+/Rm5KzbpFCfOcQIAOi7TfDGX7yIs2oW5jTKZT/mEOaY5w/QLc/bLe8XjwyzOc/nedmScAADQnDSl0sO0Er3CfJyF+UkW1YT3zLiXYdoBCLM2gcXjKSoU3uacX4U4AQCgIWm+kcslCIlWYW5nYV7OwhzzCfOZQIVZq8ASiUMszmXOakQQJwAA1IT/nObfUbBL4+3hyvQRsu3fcxlhkezlMu4bRWo6E4FnmNUFNvO5xmRygvL5d7NAb+PXfFCzOHGOEwBgrDRP5fKuALZvc+V5H2c0t1M2+xh17oJqaS/DLLZMmLWLM09jYx+i/v6D/JrPQpwAADC3NCXL0Hu1EqWGOIsZpFzumYr/yZE7clS6KrPeYzvQeYrmEMzlvST2Y2NXUF/fAYrFrtV2LCg1j8bHF1A8vg+7DgBghjRdVX1A4zazZBe/Run0Rn/1Se6qNwepf95E9QoWOyMQYU6Zc/bF1vudRst1VLRFnDdJDtpcH4P9XUpPfIfvLaAiJ9gxiBMAYEam+VIuZ2ja3hEq5D9J2ax/OoMMgtnDlXIW4W6XMGvMOIVY7HssvIN8+wNRaZPCBAAAo5BuOF0r/xyhfO5SnzAlc0mxLEcgzBAIs1ycs49ujcV+zOJ7F7mXKWtWmPuQZQIATJLmmzRsJ8MZ5qcpl9vpPZYrdzzNsjyMEIdImPWJ80EWoDSonm1KmP3zIEwAgFHSfFXTW7GLN3CG+USFMCcQ3hAKsz5xbvNWD9oBYQIAgCvNVzS1BRklm07fVao6SeYiojs23MKsR5zxuMyp/XPe0VshTABAp5PgyvCkZnJMKuRv8D1+lvr7JzAUNgLCnBQnsTjt2QcHxWPPUaGwlAX6Y37dedOFma4QZv++8mMAxwMAwJxMc34TWeZ9lMuNeI/GuLLEOcwoCbOejDOROMbivIBft2luYQIAgLGZZhMUi7f7Hu1BOCMozHJxzp5xJpNZymbfT11d3+HXFiFMAACkWTt7vKXxhKNcYeI8ZlSFWY84u7uLND5+Gd87hcsAhAkAgDRrQalf0dTJqkMIZcSFWY84+/tlv+9mecpIaXtSmOk09iYAwHBpNjpGw7a3efdy1Nc/jrEeBghzypyzL7lXoq9/r9uAKjWksEMBAGbT+MLctv1/3r3jCKNJwizLOHFdTAAA0CLNYrF0DmscYTRMmBAnAABozzRLssQAIBOFWUIu7zUxvgC7DQAAmpGmUnnvXg5hNFSYMg8zk3Yv7wVxAgCAlosN2wij0cIEAACgTZp9/Rgzab4w9/F+xjxMAACkiRBAmBAmAABAmhAmhAkAAJAmhAlhAgAApAlhQpgAAABpQpgQJgAARJ9E0+uFYuxsdIWpqgizl4WpcCwAAEB1aQII0y9MEE16exfyv4u5LPQV8p4b8L3yCJetFfdHnJJOb0UgAYA0IUwIU6SiYysv5vJVlstHQyLJlZ4Ul1WIcTYGvNeXWFkRozs9kd7J33PEsH33Cy6vrvH1W3z3R7xyxGtcbDH8OBf+hL/nc5reT2L/AJfTDahJroI0IUxkmLVxqlfpPtPGClGEt8onyyBY6ZVBfr+tnkTDI9Dm9t0r6vibZXOIYsQT61bnNtrxqRavH3J5a5tij0wTwoQwI86fehXkqa407aTTEqfY7hZmlWs9mQ208Hsv9ooIdD3f3hBBOfj3nU4Weg2Y0j4ypYEh8bqPJtcUt9kRsULIYt8+bPtkjJ6FMMHsnMHlId8PP+a1mpMtkWVv7y1872mvgh5oYxxWOZ9DPo8r8Sjuu6AbGINejO7nsirCx/pLuRxgQ3Q1EbtWxr6lQJoQpg76DN3PZ3L5T3LPyZSCKX1zXQHLcoCLZJa/K8tmwkFJnmu97uII7buWIV270rh4OkLy9MeryGXMy6YTEYs9pAlhhl6Y87nca+B+fhO5gxdeVB5PsgIW5mJPloNtziznQj7fVv68yyKz71rPwojIszJeRVJKumSlN6UQ0dgHRRbShDCbQSr1zVzOdR/aphxP55B7Lub5LX3XqewyKt2fp3GRrsjPd/y+q02e94ewa7tavCTTzPjuRzn2OtlJtv0EpAlhNspJ5I6KO8t5lB6Pe5Vo1DmP3IEQz2uhLAecCtXN3qLIdfz5HwhBd23r9119LPOy81UhP9Yluxwnd7mSoiGxb7ZC3UaF/JVkF/dCmhBmI5xM7jmLN1RkHf0R388XcPlZS7+HK5r7abYpDtFpbDzYRnG2ft81xole1vn1EB/rLEqV96RpGxT7ButT9TBlM5dRsbCbpXkMy+iZKMxshTB7mlgabzov8yr5V1U83xfq42Huz/UeLv9G9Qzyafa7yvlL5cRywJDfigwAeYZ6epdTOv1oqPdd+1nNcXoz317IsTrSwljVEq+itx1XmmrW93sl//uTiMW+HmE+QLn05/hWGhEynmEcmWYnCFMfcj7moSrCjDoXkzvHrnU//KkMc8CwWEr33G3U0/1CY/edPt5G0mPT2uy8xnhZCU+ac2n4PQYL814W5mpPmMIolxFIE8KsFVl+7JdcXm7Yfr6Uy79QKxf6MFeYJV5LVuwh6kqebNy+08/rnd9VaxoZtcZLRNlT4zaj6JC583GlfsrC/DzfFn3C3EkGjXaEMIMV5uvIPYf5EsP28+VOVkQUb/H73kHBLYMXFhZRLP5PZNlxw/ZdMI0Msr4fYKzqjZd0Q87z3Tcuh5xDmHdQduJLfFs6n3uUy67S3yUIJzUNEGamQph9+zTulzeSO63kBdE+HqZ9riu43Fh/paCa+669vYP8d8uoE7DoAurm75tNX0XKKrZ/33VkrBqJVxdvZ2BKmqpz6n+lfsD74Bu+Lybnm1P+L4pM00hhauMt5E5UfoFh+/lqLt9oeaXb2ytrx67tqF+UZa2mru6LI7/vohmrRuOV5M9S+s3HDYvyzOdplbqVhXmj7/8Pcdld+XpIE8KcibeTmfOu/t4rrcU9jznYkb+sWPxqstRJkd13rY3VICUTr2zzsS7nPOd7ojXtoh4zCNO+iYX5bd8zB7jsmSk4AMKs5Hwud5FZa8pKBSCtyCva9P6SYbZiNZhRbjEP8UHyJNlqmI+VFBXyqakcomsRh2I+xaxFnE2cxfeXtOAzLaLuni/wMfu3pKyxtu47Za+rMes7y7uzpMXHySkUj3+S91mjsdIRL/FCf43SlKu7XMXHHL9ezdfzS419RmNduW6GTDPm3Vpk27+nfG6b7zX7uTw3c3AHNzfWKZ2ZONO57el7HMI0Spgf5/KPVO8w8tLxoKxwHg+9vTeTOxii2R0wRJn0ZSQLWitrpMb3Lq0nGyQp/vFvoFxmY33VY1Iq6RVcUX3Eyy6Ck3khfyHlCw+0b9/5jtN6kIZGLLaEY7TcaQC0gkJ+BZcH6j6/2dsrorupyXjJAJg8x0rWkS3wZ3hqbtE5PQl6Rkv39D2mLY6z729F07utn/OkOWuLotOJzrmR4IUprDd0P1/exvcOslt2lGW5roosS1eqmOCSJrk+orJyvkpOrtYS54p5L5enKBbfSMnkRVpb+eXMp3jicn6vJ/hzHAjBvttb4+tO4Czkt3w7TDL61GlkJD7CmehFgR4x8cQqjpVkP/XGSkbIXtrku8c8N1hU+ym8dB0xbQe1fDb5rYzPnYZj8Ow1vowz3MLMVQizu29f6OIf3RWBgtmmXAVEBbVEHme9+dwasoujvidzTkvZtg7P/qdW2rs35lbMxRRli3+gRNevuML+Jkk3of726UUUT95KxfyD/Plybd13ds3innpdjBsabiNjB3+PDZRIfDG47luOVSy+TpZtqzNWl2r6AHFPmvGa4u92JY+F9rc60/6O1f9mGAhUEqdSN0ZOmCAKrAzmmFAbKZu+zCdMySxTXDk8Nacwq1cqOadiKeTuYim8w8usAsig4rJOaTQvG2VzQ0NiZFs7WPxbOP4raz5H2giJ5EVk7iW2IkunSfO0GTNKy1oTSnFCmNHFvQyU/itaiDBz6Wt9z0gLvzFZThdDkfKFHSxjyY6360+gYu8luXRUTEV76TW3kZHi3+bn+Df6hWCSzclYtXPah4UfcmdLczm53bHRECeEiSxz+kExVCHMw1x5jziy00k2t5d/C28nd56aTk6hZPcKMmUqk8gzk72OY7U6gK2fQgkZ7Wzs9SkhzQiw1LuV7tivh1qcECakOZ1RKhQqhZkK7NNnMgf5378OIIOS6RxmLZiRyXyDf7T6u2pj8eVk3uIikGaEvutSnxxXh1acEGb0cbtmF2s+LjZQcXLO5VigwiyRTssSil/TK01LMs0uiinDFs6wvkzuot46Y7XEi1UvflSQZqv5s2kttjCKE8I0Bd0jZuX82W3efXfQT+uQKTNHNW5vvtfteIJRe9y9Lub1mrcqC9/L/NkT8ZOCNFvN8hnkGB5xQpgmoTvL3OR7tL+uaQh6ZHCL3ponJhnU84zb6+m0zHMe0brNeEIaGPPwk4I0w9PyD4M4IUxIczYK+dLiBbk65hjqRPOiF5ZcZi5uaLej3lhZlkizt82jaEGHSVMuqHrOHAdm+8QJYUKasx8gQ775mIfalEFJ9rRVnwgmF08wMYPaormBUerGxnlNSLNlvLWmA64d4oQwzcNda1bjMaJ+43t0uI3fTKMMJlfS6TZu/6fT0rg4orGBsQjSDA+dsoxeHYMyWJy2ciU5/f9EnO5rdAkzXyHMrhAujWcCqqXvNaB1e3K1Epcx7fMx6/teWwPYaleo9p3eWOkeDJYwMlYR+w6dkmkura9lN0vGKeIkDRnnTMIEJqBXmnJ5L5fjbf5emge4dJk8wEVjA8NCpglpthSZZvLG+o/TAMUJYZqO3utmTs3NTLf1W2XSejNNy5pv8DFwROO25uMnBWm2knc0/D2DECeECRonZ+S3wsT9WkGcIM2WsLSpv9YpTggTNEMr52a2FkylQJwgzRCxvOkt6BAnhAkAAJBmyJFLgek5v9SMOCHMTiOIATPtp0f3VBo7ZfAxoPO89jB+UpBmdLLMZsUJYXYiRzQfd2EZCKJ3VPDUACdIc/bWxSh+UpBmq1iqfYv1iBPChDT1HHNuptn+ATOLA9quiedqdc7RLEkzjZ9W+0kY/N1igUhzSpwzL4Ags3OVmgdhdigyNaNHo9+smPSYyBVO2j0QROP1QdXQ5F3TBjhp78ZWT5Zyc/y4kGkGyfRLgbUy48xnroEwOxqdcxoXUTwpa7W2L9Ps0Xx9UEUmd83qv/g4pBmiTNPcZfSWB/8WXsZJVTLOJEsyPzF1v1OWxlMd9LnUrP+3VatkrPgKovwO3u6BNsVPrwimsqexOfeNithxqjtWtl0aCDRhXKwi+B1MzjSXteZtZB3aGTJOkWUSGWaHoncErRX7CItzAcVVV5u+zyq9ldikCEzrmpU46Rw5O0rF3DAyzfBgqjTnvhRYq8QJOpU7NW9vPsWTF1E7Ltzc07tWswhSPhFMGCRMGV28VnOKNOR7gIFAISBBZvbP1nYpsOYocHmSlPofjsFjZBe3kV1YQMneDs8sTe+fVbVtMzMxwpXoiFbZWNZnWJy/IsrfxTlHa7IO51ym0isCVSkCU/oc1SDpXndY2b+ZzDKLJsUqut/B1NGzQXTNHnHkqJwigtzOB3S24jULKM/HdceLM3QZwLI2vfOd2jOPWOIa5/grFna06DvcQdqv2lLc5N3LuSIw4hiTbtlV2rdbLGz27o3hhxyaTNNImp1qYpOck5LKyc0iuRR2zdKEkR/+hFfGcVhpqYQGvAr7fZRJNzvvUeOoz7ILQs/Feu3SdEfS/oSs2DLK5fYGvA9uIf1zM1NUzA8bJQJXmLcEkB1t5gZGaeTscVQKkGZQNHIpMBadeoL1x1mkLYKU25l+0AWfHCccYSZ7bRxKWiuhhZ4wpcK+nx8vb1Kci9vyPTJp6aLdEkDPxyKKxTdTd895lM0cDFCY+jMnZW/yPTpkwLE6GEDDyGu6l8XqGCoGSDMoarkU2K6prlZburpG5Nc8U9VXJslkbxaHTaCVkCvKqS5BefzLhgXhbk/nFIB6W/43UDCnC15LlvUgf7+PspwfDSDDD+Izj/JvbaN3P9pds26X/2CADTIZLDU0KcwiRs5CmsFR2TUrktvudrXaXldrcaasxa7IIkWSOFjbJ0wdgtDbbaZUfZPyM+ktAWWbblzcTPwGfp/rNcR/lSeCgUD2r7I3+LobD0X0GF3pZeDBnieXWJmUkUOaoeY15AzAUP/NctxNdkFGuBZmeG22QpJZlqTCYREqYTYuiCDOyU21/utpTAWVbQoyBeU6/q4f9xoI6+vqynYzSxGB7mkls2WZErvDETouS2VlYA2KcoapkPVn5BgEFCppmjfj5Fzn30LmJVS+jJ5kkekySSZ6CxH4PtGikfhJ6105Ff5cFZIriG6ntf9dp3FUTRBuNrCWt6m768x/iaZczd817WSbd5L+5dX8nOZliYMcH8lspciqRCPOudWp2Cz05OiKQDkyD14Eyl7nyzL3U6GORofO32Six+15SFhziWixE5d21AequM73aH9dnwEzTgLfpskLtssCB8fIP2AngSwyhC35RkYevsH7m1v470UMfnEG123mn19YqLv1fxW5Szue2IKoLiuLQ0+7L47CcStmQ5JlWkvC3ehUt/l6M9J8nB1GJRG2TNPYb9b7NHavkcKslhG0iMmJ5vUPYHFH0g562WAnMUp24Vrf4711ZZmdRYrs/IayWIHQEUMIQISF2doKbSoDaOwcUyYt5zY3ddR+lm5Zu5CajBsyp9kaF2t8XdgHGujNAJAmMFSYayMmzMr5hc1MNJcBO491hjClq7GsWzaFg3+2xkXev4j9fgQF0gSgNKI1al2UkgVMjWZsJgNwBy59jIyfrC7nMTP+AS3SLZvDD6CqMK+taFzsQhc2pAlAcOtzBl+p6Z1fmEnL4KXlBotzmIp5/zVmD6BbtiZhlhoXuJoJpAmAIwtZi3VrxD51ypdl6hv56SzSoN5JUysMGSTM3GW+Roacx8SAltqEmULjAtIEoBLJsI5G5tOWD87Yr7XbLJN5hGvOC8wRp9pcIUzJmHbhkJ+GdPdfAmFCmgDUkmHJOT2ZQxj+rknJBMoHZ+iv1EScyj6byhdOiKIwN1Ihs6ZCmCM4NzctTkN8TF3iO64gTEgTgDnFWTqnF+IMiyVQngkENzgjmx1m2XBDQt0ZyaxJGheFjH8u5jEIs2qc1nGcLvNNwZH47IAwo4WJy+iBtrqmxtel049ST88FRNb3SC51FTphlkkgRfmAB2dkcnspSR+kWPfDZMXkvedHYG8Pc8bE2WXBP5XkMMcq1ZZjKswNMLuwoSJOY95xlQt9rLCMXoU0AWhbxpl5hLq7lrEkNrA8zw9H/SZdsmUZpkigNZmAVKDJ7E0US/6OrPjfcEwuCnHWtIHjdJvvOcma9rYsVtGQ5ZCzGlK5LCVO+zlOBxCfqGaaALSTrJNhXcgZ1pUszzVtzLBSpIoszNxQoFnT3OLkSjX/CCXz2ynWdR/H5GPhWi9V3eYs9TZ17tLpNyDpvs5jHqbToHAzy00VsnSPJ1eYiBOkCUBTokhzhnU9Z1f/zlnWZ1gSH21xdrmOK7iNFSJItTVrytMxSua+z/fuZXm+k+X5Xo7LirZmltNjhKxp6iDaTEr9pqKXokQwXbEA0gQdLU6ugIuPU7K4hqzEHRRLvM/rngwq85wpI8h5FdxYCGLifpZk7kckl/qyEq/muJTkeUoLRDDEIrif47O5QpbCAU+YHTrYx7nizTDH50kW5eYqLyjN6T0EWUKaAAQpisOULGyhYuFxfrSOYt0ryLLO8kShQaBeRlBdBHvJ7ZIthiwmY062kizs57hsd+OSXEQUW+LFRlf37agnypni42aWYYyRfoY5FqOT95U67jRgyE5VTBepREYOH8e5XUgTgBZnnSTnOg9xK14ymnu4XOuJYpEjT0cWgrVoBpmWKj2vwlPDFecro5cRTMqTurjilrhs4+IOximPzRlTMZkm1FEnFi4pjs0e97Y4XOUcXAl536OOENohy0zacm6T9PoQ7hWJjXtx+3wI5h6HO1ZGfAdIE4RZEjkv+xOBPo9FIXJ7gkt8UhaN42YE7RKBvrjIFabncWzGSN8CCUVPBtGMj17SXjxK9wvkduHnAp+GBJBpAtCEKI55okt5ouj15HmC94rS45kqvVKFlw7F+Up9cUl73+2A1zr3x6bPF5N5VcRYqvRFAlnvNh3ajDtPj+OH0EGxCul3gDRBlEVBk7IA1WIDANBME8voWUmEzzi6EAIAAAhCmlasH+EzjnkIAQAAzEwTa8/GFhAVj1IxbVGsFyvQmsHLmt4CjgQAADLNqn/6iua3AULGaxACAACYLdNsNDWw6A38pz8n5zyYwsADMzin+U0g1QQARAWrlZmm9RbvHbsReGOOnvMRBgAACESadApZyTP5FgOCzOBsLgsRBgAACEaaMoL2YpqaXA6izaea+Ns8wgcA6BRpjjZhzfPJSpxOdgbZZrR5NZf3NfH3EwghAKBTpHmgqb+3Elfx7QsQykjzLaq+BF2tlBpeGAUEADBemk83uY0lFOv6MGebGBAUTeSCz8ub3Ebp6hg2wgkAMF2a/6thM1eTlfwLhDNyyOW1vt38ZtRO704RIQUAmC7N32nYTg9Z8VtJ2W9GSCPD6VzuJvdKGM1K8w/eHVyhHgBgvDQf0LStAbJi93IFeg7CGnoWc/kll5O0bE3Zj3r3sggtAMBk5NJgu7k8yeUMDdt7PpG1hW+v5HIzwhtKVnFZ5/QO6OGPpAqlc5ppDAUCAJieaQo/1LhNqYxv4iLyPB0hDg2yLzZzuUWjMCXNvNf3YAxhBgB0ijR1j3xcymU7lx+Ru9qMhXC3hbO9/Sv7Yrnmbdukij/x7mcpq3BOEwBgNAnvdie5g0LerXn7MvfvEq88w+UeLg9zeYqkW8+d34fVZPQgFwWfT+7lvWSxgrdyuYDLacG9pXqIVGGP9+AYdgEAwHQs+spk75oMDnkUGSGo1ZicZV5CKv+k9/gpZJoAgEjR3dxVTrZy+VdEEdTozHt8whylWA+ECQAwnsoF29cQutnA3BwnVfim7/E+hAQA0InSfJbLJxAWMHuSaX+VVLG0ZvFRzjJxEXIAQEdKU7idy3qEBsxgzI2kcqUT4bJs3l7EBADQydIUPk3uijEA+Pkt2blB3+M9nGVi9DMAoOOlKYM6ZLrCVoQIeDxGdpYbU6okyUMszKMICwAA0nSZ4AryPL79L4Sp01G/5gzzE3yb8Z6QlX+eRVwAAJBmGdZxUvYKrixvR6g6VpgbWZicYdoTU40p2slZJlaZBQB0HIm5F9iOZcjOfICsrof5/vX8xAkIW0dwnEX5FVK5zeXP0S6yeuyqxw00CgDo7EyzlHBKJZm7mVThXK4Z70b1aHZq6exjlf/LCmEecjJMORYAAKBjM81asZzuuMdIZf6KrOQy9u0qfnJZzeIFYYdlqLbwza0szD/4npdpJXt4/2PQDwAA0qz7L6yeYyzOn5JMP6D4IrIS7+InZaTtQoQzkjzDsvw5qcLd7MfKOZdHSOZhWj0FhAkAABqRpitOqUR3szwPkirKFUvWs0BPJiv+Zv7P13A5lZ97CZcTufQ1/D5AF7K/ZADPUSdrJLWLy3bed49WEaUgSynu5/2MlX4AAMDH/wswAAhEHK81Ak0FAAAAAElFTkSuQmCC;" vertex="1" parent="1">
          <mxGeometry x="590" y="437.81" width="80" height="26.38" as="geometry" />
        </mxCell>
        <mxCell id="JAKa-1IH55sqwPYCDe7c-21" value="&lt;span style=&quot;font-size: 15px;&quot;&gt;Editor&lt;/span&gt;" style="text;html=1;align=center;verticalAlign=middle;whiteSpace=wrap;rounded=0;" vertex="1" parent="1">
          <mxGeometry x="514" y="435.81" width="90" height="30" as="geometry" />
        </mxCell>
      </root>
    </mxGraphModel>
  </diagram>
</mxfile>
